<?xml version="1.0" encoding="UTF-8" standalone="no"?>
<!DOCTYPE svg PUBLIC "-//W3C//DTD SVG 1.1//EN"
 "http://www.w3.org/Graphics/SVG/1.1/DTD/svg11.dtd">
<!-- Generated by graphviz version 2.43.0 (0)
 -->
<!-- Title: G Pages: 1 -->
<svg width="4409pt" height="798pt"
 viewBox="0.00 0.00 4409.20 798.02" xmlns="http://www.w3.org/2000/svg" xmlns:xlink="http://www.w3.org/1999/xlink">
<g id="graph0" class="graph" transform="scale(1 1) rotate(0) translate(21.6 776.42)">
<title>G</title>
<polygon fill="#111111" stroke="transparent" points="-21.6,21.6 -21.6,-776.42 4387.6,-776.42 4387.6,21.6 -21.6,21.6"/>
<!-- src/components/SearchModal/CurrencySearchModal.tsx -->
<g id="node1" class="node">
<title>src/components/SearchModal/CurrencySearchModal.tsx</title>
<path fill="none" stroke="#ff6c60" d="M348.33,-574.5C348.33,-574.5 7.67,-574.5 7.67,-574.5 3.83,-574.5 0,-570.67 0,-566.83 0,-566.83 0,-559.17 0,-559.17 0,-555.33 3.83,-551.5 7.67,-551.5 7.67,-551.5 348.33,-551.5 348.33,-551.5 352.17,-551.5 356,-555.33 356,-559.17 356,-559.17 356,-566.83 356,-566.83 356,-570.67 352.17,-574.5 348.33,-574.5"/>
<text text-anchor="middle" x="178" y="-559.3" font-family="Arial" font-size="14.00" fill="#ff6c60">src/components/SearchModal/CurrencySearchModal.tsx</text>
</g>
<!-- src/components/SearchModal/ImportList.tsx -->
<g id="node2" class="node">
<title>src/components/SearchModal/ImportList.tsx</title>
<path fill="none" stroke="#ff6c60" d="M665.33,-514.5C665.33,-514.5 399.67,-514.5 399.67,-514.5 395.83,-514.5 392,-510.67 392,-506.83 392,-506.83 392,-499.17 392,-499.17 392,-495.33 395.83,-491.5 399.67,-491.5 399.67,-491.5 665.33,-491.5 665.33,-491.5 669.17,-491.5 673,-495.33 673,-499.17 673,-499.17 673,-506.83 673,-506.83 673,-510.67 669.17,-514.5 665.33,-514.5"/>
<text text-anchor="middle" x="532.5" y="-499.3" font-family="Arial" font-size="14.00" fill="#ff6c60">src/components/SearchModal/ImportList.tsx</text>
</g>
<!-- src/components/SearchModal/CurrencySearchModal.tsx&#45;&gt;src/components/SearchModal/ImportList.tsx -->
<g id="edge1" class="edge">
<title>src/components/SearchModal/CurrencySearchModal.tsx&#45;&gt;src/components/SearchModal/ImportList.tsx</title>
<path fill="none" stroke="#757575" d="M220.13,-551.48C268.06,-541.22 349.33,-526.77 416.82,-516.15"/>
<polygon fill="#757575" stroke="#757575" points="417.76,-519.55 427.1,-514.55 416.68,-512.63 417.76,-519.55"/>
</g>
<!-- src/components/SearchModal/Manage.tsx -->
<g id="node3" class="node">
<title>src/components/SearchModal/Manage.tsx</title>
<path fill="none" stroke="#ff6c60" d="M660.33,-594.5C660.33,-594.5 404.67,-594.5 404.67,-594.5 400.83,-594.5 397,-590.67 397,-586.83 397,-586.83 397,-579.17 397,-579.17 397,-575.33 400.83,-571.5 404.67,-571.5 404.67,-571.5 660.33,-571.5 660.33,-571.5 664.17,-571.5 668,-575.33 668,-579.17 668,-579.17 668,-586.83 668,-586.83 668,-590.67 664.17,-594.5 660.33,-594.5"/>
<text text-anchor="middle" x="532.5" y="-579.3" font-family="Arial" font-size="14.00" fill="#ff6c60">src/components/SearchModal/Manage.tsx</text>
</g>
<!-- src/components/SearchModal/CurrencySearchModal.tsx&#45;&gt;src/components/SearchModal/Manage.tsx -->
<g id="edge2" class="edge">
<title>src/components/SearchModal/CurrencySearchModal.tsx&#45;&gt;src/components/SearchModal/Manage.tsx</title>
<path fill="none" stroke="#757575" d="M356.02,-566.29C379.84,-567.65 403.63,-569.17 425.66,-570.75"/>
<polygon fill="#757575" stroke="#757575" points="425.43,-574.24 435.66,-571.48 425.94,-567.26 425.43,-574.24"/>
</g>
<!-- src/components/SearchModal/ImportList.tsx&#45;&gt;src/components/SearchModal/CurrencySearchModal.tsx -->
<g id="edge3" class="edge">
<title>src/components/SearchModal/ImportList.tsx&#45;&gt;src/components/SearchModal/CurrencySearchModal.tsx</title>
<path fill="none" stroke="#757575" d="M490.11,-514.58C442.12,-524.84 360.98,-539.26 293.59,-549.86"/>
<polygon fill="#757575" stroke="#757575" points="292.67,-546.46 283.33,-551.47 293.75,-553.38 292.67,-546.46"/>
</g>
<!-- src/state/lists/hooks.ts -->
<g id="node4" class="node">
<title>src/state/lists/hooks.ts</title>
<path fill="none" stroke="#ff6c60" d="M1267.83,-517.5C1267.83,-517.5 1134.17,-517.5 1134.17,-517.5 1130.33,-517.5 1126.5,-513.67 1126.5,-509.83 1126.5,-509.83 1126.5,-502.17 1126.5,-502.17 1126.5,-498.33 1130.33,-494.5 1134.17,-494.5 1134.17,-494.5 1267.83,-494.5 1267.83,-494.5 1271.67,-494.5 1275.5,-498.33 1275.5,-502.17 1275.5,-502.17 1275.5,-509.83 1275.5,-509.83 1275.5,-513.67 1271.67,-517.5 1267.83,-517.5"/>
<text text-anchor="middle" x="1201" y="-502.3" font-family="Arial" font-size="14.00" fill="#ff6c60">src/state/lists/hooks.ts</text>
</g>
<!-- src/components/SearchModal/ImportList.tsx&#45;&gt;src/state/lists/hooks.ts -->
<g id="edge4" class="edge">
<title>src/components/SearchModal/ImportList.tsx&#45;&gt;src/state/lists/hooks.ts</title>
<path fill="none" stroke="#757575" d="M673.22,-503.63C807.22,-504.23 1005.1,-505.12 1116.28,-505.62"/>
<polygon fill="#757575" stroke="#757575" points="1116.42,-509.12 1126.43,-505.67 1116.45,-502.12 1116.42,-509.12"/>
</g>
<!-- src/components/SearchModal/Manage.tsx&#45;&gt;src/components/SearchModal/CurrencySearchModal.tsx -->
<g id="edge5" class="edge">
<title>src/components/SearchModal/Manage.tsx&#45;&gt;src/components/SearchModal/CurrencySearchModal.tsx</title>
<path fill="none" stroke="#757575" d="M396.99,-581.95C359.96,-580.15 320.32,-577.8 285.14,-575.27"/>
<polygon fill="#757575" stroke="#757575" points="285.09,-571.76 274.86,-574.52 284.57,-578.74 285.09,-571.76"/>
</g>
<!-- src/components/SearchModal/ManageLists.tsx -->
<g id="node5" class="node">
<title>src/components/SearchModal/ManageLists.tsx</title>
<path fill="none" stroke="#ff6c60" d="M1000.33,-554.5C1000.33,-554.5 716.67,-554.5 716.67,-554.5 712.83,-554.5 709,-550.67 709,-546.83 709,-546.83 709,-539.17 709,-539.17 709,-535.33 712.83,-531.5 716.67,-531.5 716.67,-531.5 1000.33,-531.5 1000.33,-531.5 1004.17,-531.5 1008,-535.33 1008,-539.17 1008,-539.17 1008,-546.83 1008,-546.83 1008,-550.67 1004.17,-554.5 1000.33,-554.5"/>
<text text-anchor="middle" x="858.5" y="-539.3" font-family="Arial" font-size="14.00" fill="#ff6c60">src/components/SearchModal/ManageLists.tsx</text>
</g>
<!-- src/components/SearchModal/Manage.tsx&#45;&gt;src/components/SearchModal/ManageLists.tsx -->
<g id="edge6" class="edge">
<title>src/components/SearchModal/Manage.tsx&#45;&gt;src/components/SearchModal/ManageLists.tsx</title>
<path fill="none" stroke="#757575" d="M626.78,-571.48C666.67,-566.56 713.39,-560.79 754.32,-555.74"/>
<polygon fill="#757575" stroke="#757575" points="754.82,-559.2 764.32,-554.5 753.96,-552.26 754.82,-559.2"/>
</g>
<!-- src/components/SearchModal/ManageTokens.tsx -->
<g id="node6" class="node">
<title>src/components/SearchModal/ManageTokens.tsx</title>
<path fill="none" stroke="#ff6c60" d="M1350.33,-614.5C1350.33,-614.5 1051.67,-614.5 1051.67,-614.5 1047.83,-614.5 1044,-610.67 1044,-606.83 1044,-606.83 1044,-599.17 1044,-599.17 1044,-595.33 1047.83,-591.5 1051.67,-591.5 1051.67,-591.5 1350.33,-591.5 1350.33,-591.5 1354.17,-591.5 1358,-595.33 1358,-599.17 1358,-599.17 1358,-606.83 1358,-606.83 1358,-610.67 1354.17,-614.5 1350.33,-614.5"/>
<text text-anchor="middle" x="1201" y="-599.3" font-family="Arial" font-size="14.00" fill="#ff6c60">src/components/SearchModal/ManageTokens.tsx</text>
</g>
<!-- src/components/SearchModal/Manage.tsx&#45;&gt;src/components/SearchModal/ManageTokens.tsx -->
<g id="edge7" class="edge">
<title>src/components/SearchModal/Manage.tsx&#45;&gt;src/components/SearchModal/ManageTokens.tsx</title>
<path fill="none" stroke="#757575" d="M668.38,-587.05C773.88,-590.21 921.1,-594.63 1033.87,-598.01"/>
<polygon fill="#757575" stroke="#757575" points="1033.89,-601.52 1043.99,-598.32 1034.1,-594.52 1033.89,-601.52"/>
</g>
<!-- src/state/index.ts -->
<g id="node21" class="node">
<title>src/state/index.ts</title>
<path fill="none" stroke="#ff6c60" d="M1504.33,-365.5C1504.33,-365.5 1401.67,-365.5 1401.67,-365.5 1397.83,-365.5 1394,-361.67 1394,-357.83 1394,-357.83 1394,-350.17 1394,-350.17 1394,-346.33 1397.83,-342.5 1401.67,-342.5 1401.67,-342.5 1504.33,-342.5 1504.33,-342.5 1508.17,-342.5 1512,-346.33 1512,-350.17 1512,-350.17 1512,-357.83 1512,-357.83 1512,-361.67 1508.17,-365.5 1504.33,-365.5"/>
<text text-anchor="middle" x="1453" y="-350.3" font-family="Arial" font-size="14.00" fill="#ff6c60">src/state/index.ts</text>
</g>
<!-- src/state/lists/hooks.ts&#45;&gt;src/state/index.ts -->
<g id="edge37" class="edge">
<title>src/state/lists/hooks.ts&#45;&gt;src/state/index.ts</title>
<path fill="none" stroke="#757575" d="M1221.2,-494.33C1265.21,-467.57 1373.48,-401.74 1424.53,-370.7"/>
<polygon fill="#757575" stroke="#757575" points="1426.35,-373.69 1433.07,-365.51 1422.71,-367.71 1426.35,-373.69"/>
</g>
<!-- src/components/SearchModal/ManageLists.tsx&#45;&gt;src/components/SearchModal/CurrencySearchModal.tsx -->
<g id="edge8" class="edge">
<title>src/components/SearchModal/ManageLists.tsx&#45;&gt;src/components/SearchModal/CurrencySearchModal.tsx</title>
<path fill="none" stroke="#757575" d="M708.96,-547.38C608.28,-550.35 474.42,-554.29 366.42,-557.48"/>
<polygon fill="#757575" stroke="#757575" points="366.27,-553.98 356.38,-557.77 366.48,-560.98 366.27,-553.98"/>
</g>
<!-- src/components/SearchModal/ManageLists.tsx&#45;&gt;src/state/lists/hooks.ts -->
<g id="edge9" class="edge">
<title>src/components/SearchModal/ManageLists.tsx&#45;&gt;src/state/lists/hooks.ts</title>
<path fill="none" stroke="#757575" d="M965.37,-531.5C1013.92,-526.22 1070.66,-520.05 1116.18,-515.11"/>
<polygon fill="#757575" stroke="#757575" points="1116.75,-518.57 1126.31,-514.01 1115.99,-511.61 1116.75,-518.57"/>
</g>
<!-- src/components/SearchModal/ManageTokens.tsx&#45;&gt;src/components/SearchModal/CurrencySearchModal.tsx -->
<g id="edge10" class="edge">
<title>src/components/SearchModal/ManageTokens.tsx&#45;&gt;src/components/SearchModal/CurrencySearchModal.tsx</title>
<path fill="none" stroke="#757575" d="M1043.9,-612.36C880.83,-619.99 617.81,-626.25 392,-604 338.4,-598.72 278.2,-586.54 235.51,-576.82"/>
<polygon fill="#757575" stroke="#757575" points="236.12,-573.37 225.59,-574.53 234.55,-580.19 236.12,-573.37"/>
</g>
<!-- src/hooks/Tokens.ts -->
<g id="node7" class="node">
<title>src/hooks/Tokens.ts</title>
<path fill="none" stroke="#ff6c60" d="M2513.33,-498.5C2513.33,-498.5 2393.67,-498.5 2393.67,-498.5 2389.83,-498.5 2386,-494.67 2386,-490.83 2386,-490.83 2386,-483.17 2386,-483.17 2386,-479.33 2389.83,-475.5 2393.67,-475.5 2393.67,-475.5 2513.33,-475.5 2513.33,-475.5 2517.17,-475.5 2521,-479.33 2521,-483.17 2521,-483.17 2521,-490.83 2521,-490.83 2521,-494.67 2517.17,-498.5 2513.33,-498.5"/>
<text text-anchor="middle" x="2453.5" y="-483.3" font-family="Arial" font-size="14.00" fill="#ff6c60">src/hooks/Tokens.ts</text>
</g>
<!-- src/components/SearchModal/ManageTokens.tsx&#45;&gt;src/hooks/Tokens.ts -->
<g id="edge11" class="edge">
<title>src/components/SearchModal/ManageTokens.tsx&#45;&gt;src/hooks/Tokens.ts</title>
<path fill="none" stroke="#757575" d="M1358.08,-595.74C1573.09,-584.54 1972.19,-559.44 2310,-514 2335.99,-510.5 2364.42,-505.38 2389,-500.54"/>
<polygon fill="#757575" stroke="#757575" points="2389.8,-503.95 2398.93,-498.56 2388.43,-497.08 2389.8,-503.95"/>
</g>
<!-- src/state/user/hooks.tsx -->
<g id="node8" class="node">
<title>src/state/user/hooks.tsx</title>
<path fill="none" stroke="#ff6c60" d="M4342.33,-618.5C4342.33,-618.5 4199.67,-618.5 4199.67,-618.5 4195.83,-618.5 4192,-614.67 4192,-610.83 4192,-610.83 4192,-603.17 4192,-603.17 4192,-599.33 4195.83,-595.5 4199.67,-595.5 4199.67,-595.5 4342.33,-595.5 4342.33,-595.5 4346.17,-595.5 4350,-599.33 4350,-603.17 4350,-603.17 4350,-610.83 4350,-610.83 4350,-614.67 4346.17,-618.5 4342.33,-618.5"/>
<text text-anchor="middle" x="4271" y="-603.3" font-family="Arial" font-size="14.00" fill="#ff6c60">src/state/user/hooks.tsx</text>
</g>
<!-- src/components/SearchModal/ManageTokens.tsx&#45;&gt;src/state/user/hooks.tsx -->
<g id="edge12" class="edge">
<title>src/components/SearchModal/ManageTokens.tsx&#45;&gt;src/state/user/hooks.tsx</title>
<path fill="none" stroke="#757575" d="M1222.57,-614.54C1284.58,-648.21 1476,-744 1647,-744 1647,-744 1647,-744 3578,-744 3828.51,-744 3904.78,-787.18 4140,-701 4184.88,-684.56 4228,-647.92 4251.56,-625.55"/>
<polygon fill="#757575" stroke="#757575" points="4254.03,-628.04 4258.77,-618.56 4249.16,-623.01 4254.03,-628.04"/>
</g>
<!-- src/hooks/Tokens.ts&#45;&gt;src/state/lists/hooks.ts -->
<g id="edge21" class="edge">
<title>src/hooks/Tokens.ts&#45;&gt;src/state/lists/hooks.ts</title>
<path fill="none" stroke="#757575" d="M2385.64,-490.78C2281.62,-496.32 2074.71,-506 1899,-506 1647,-506 1647,-506 1647,-506 1521.09,-506 1375.15,-506 1285.71,-506"/>
<polygon fill="#757575" stroke="#757575" points="1285.62,-502.5 1275.62,-506 1285.62,-509.5 1285.62,-502.5"/>
</g>
<!-- src/hooks/Tokens.ts&#45;&gt;src/state/user/hooks.tsx -->
<g id="edge23" class="edge">
<title>src/hooks/Tokens.ts&#45;&gt;src/state/user/hooks.tsx</title>
<path fill="none" stroke="#757575" d="M2500.21,-498.59C2527.77,-508.36 2563.85,-521.32 2597,-529 3106.76,-647.06 3244.56,-630.84 3767,-660 3932.52,-669.24 3978.31,-696.58 4140,-660 4172.55,-652.64 4206.49,-636.1 4231.52,-623.23"/>
<polygon fill="#757575" stroke="#757575" points="4233.39,-626.21 4240.66,-618.51 4230.17,-619.99 4233.39,-626.21"/>
</g>
<!-- src/hooks/useContract.ts -->
<g id="node14" class="node">
<title>src/hooks/useContract.ts</title>
<path fill="none" stroke="#ff6c60" d="M2822.33,-249.5C2822.33,-249.5 2672.67,-249.5 2672.67,-249.5 2668.83,-249.5 2665,-245.67 2665,-241.83 2665,-241.83 2665,-234.17 2665,-234.17 2665,-230.33 2668.83,-226.5 2672.67,-226.5 2672.67,-226.5 2822.33,-226.5 2822.33,-226.5 2826.17,-226.5 2830,-230.33 2830,-234.17 2830,-234.17 2830,-241.83 2830,-241.83 2830,-245.67 2826.17,-249.5 2822.33,-249.5"/>
<text text-anchor="middle" x="2747.5" y="-234.3" font-family="Arial" font-size="14.00" fill="#ff6c60">src/hooks/useContract.ts</text>
</g>
<!-- src/hooks/Tokens.ts&#45;&gt;src/hooks/useContract.ts -->
<g id="edge20" class="edge">
<title>src/hooks/Tokens.ts&#45;&gt;src/hooks/useContract.ts</title>
<path fill="none" stroke="#757575" d="M2460.62,-475.38C2477.94,-443.5 2530.36,-353.67 2597,-302 2626.19,-279.37 2664.6,-263.15 2695.17,-252.71"/>
<polygon fill="#757575" stroke="#757575" points="2696.41,-255.98 2704.8,-249.52 2694.21,-249.34 2696.41,-255.98"/>
</g>
<!-- src/state/multicall/hooks.ts -->
<g id="node15" class="node">
<title>src/state/multicall/hooks.ts</title>
<path fill="none" stroke="#ff6c60" d="M4033.33,-283.5C4033.33,-283.5 3873.67,-283.5 3873.67,-283.5 3869.83,-283.5 3866,-279.67 3866,-275.83 3866,-275.83 3866,-268.17 3866,-268.17 3866,-264.33 3869.83,-260.5 3873.67,-260.5 3873.67,-260.5 4033.33,-260.5 4033.33,-260.5 4037.17,-260.5 4041,-264.33 4041,-268.17 4041,-268.17 4041,-275.83 4041,-275.83 4041,-279.67 4037.17,-283.5 4033.33,-283.5"/>
<text text-anchor="middle" x="3953.5" y="-268.3" font-family="Arial" font-size="14.00" fill="#ff6c60">src/state/multicall/hooks.ts</text>
</g>
<!-- src/hooks/Tokens.ts&#45;&gt;src/state/multicall/hooks.ts -->
<g id="edge22" class="edge">
<title>src/hooks/Tokens.ts&#45;&gt;src/state/multicall/hooks.ts</title>
<path fill="none" stroke="#757575" d="M2521.21,-475.74C2625.57,-459.13 2833.95,-430 3012,-430 3012,-430 3012,-430 3258.5,-430 3471.27,-430 3525.17,-406.89 3731,-353 3798.21,-335.4 3873.62,-305.55 3916.85,-287.42"/>
<polygon fill="#757575" stroke="#757575" points="3918.24,-290.63 3926.09,-283.52 3915.51,-284.18 3918.24,-290.63"/>
</g>
<!-- src/state/user/hooks.tsx&#45;&gt;src/hooks/Tokens.ts -->
<g id="edge61" class="edge">
<title>src/state/user/hooks.tsx&#45;&gt;src/hooks/Tokens.ts</title>
<path fill="none" stroke="#757575" d="M4260.12,-618.53C4239.13,-636.27 4188.05,-667.13 4140,-678 3978.31,-714.58 3932.52,-687.24 3767,-678 3244.56,-648.84 3106.76,-665.06 2597,-547 2553.72,-536.98 2505.46,-517.95 2477.67,-503.59"/>
<polygon fill="#757575" stroke="#757575" points="2479.19,-500.43 2468.73,-498.73 2475.84,-506.58 2479.19,-500.43"/>
</g>
<!-- src/state/user/hooks.tsx&#45;&gt;src/state/index.ts -->
<g id="edge62" class="edge">
<title>src/state/user/hooks.tsx&#45;&gt;src/state/index.ts</title>
<path fill="none" stroke="#757575" d="M4261.04,-595.39C4241.78,-571.35 4193.79,-516.17 4140,-490 3912,-379.09 3831.55,-392 3578,-392 1897,-392 1897,-392 1897,-392 1763.9,-392 1609.13,-374.76 1522.26,-363.51"/>
<polygon fill="#757575" stroke="#757575" points="1522.64,-360.03 1512.27,-362.2 1521.73,-366.97 1522.64,-360.03"/>
</g>
<!-- src/components/Stake/AddCommandModal.tsx -->
<g id="node9" class="node">
<title>src/components/Stake/AddCommandModal.tsx</title>
<path fill="none" stroke="#ff6c60" d="M2890.33,-51.5C2890.33,-51.5 2604.67,-51.5 2604.67,-51.5 2600.83,-51.5 2597,-47.67 2597,-43.83 2597,-43.83 2597,-36.17 2597,-36.17 2597,-32.33 2600.83,-28.5 2604.67,-28.5 2604.67,-28.5 2890.33,-28.5 2890.33,-28.5 2894.17,-28.5 2898,-32.33 2898,-36.17 2898,-36.17 2898,-43.83 2898,-43.83 2898,-47.67 2894.17,-51.5 2890.33,-51.5"/>
<text text-anchor="middle" x="2747.5" y="-36.3" font-family="Arial" font-size="14.00" fill="#ff6c60">src/components/Stake/AddCommandModal.tsx</text>
</g>
<!-- src/pages/Stake/AddProposal.tsx -->
<g id="node10" class="node">
<title>src/pages/Stake/AddProposal.tsx</title>
<path fill="none" stroke="#ff6c60" d="M2553.33,-51.5C2553.33,-51.5 2353.67,-51.5 2353.67,-51.5 2349.83,-51.5 2346,-47.67 2346,-43.83 2346,-43.83 2346,-36.17 2346,-36.17 2346,-32.33 2349.83,-28.5 2353.67,-28.5 2353.67,-28.5 2553.33,-28.5 2553.33,-28.5 2557.17,-28.5 2561,-32.33 2561,-36.17 2561,-36.17 2561,-43.83 2561,-43.83 2561,-47.67 2557.17,-51.5 2553.33,-51.5"/>
<text text-anchor="middle" x="2453.5" y="-36.3" font-family="Arial" font-size="14.00" fill="#ff6c60">src/pages/Stake/AddProposal.tsx</text>
</g>
<!-- src/components/Stake/AddCommandModal.tsx&#45;&gt;src/pages/Stake/AddProposal.tsx -->
<g id="edge13" class="edge">
<title>src/components/Stake/AddCommandModal.tsx&#45;&gt;src/pages/Stake/AddProposal.tsx</title>
<path fill="none" stroke="#757575" d="M2596.86,-46.75C2588.3,-46.74 2579.75,-46.7 2571.34,-46.63"/>
<polygon fill="#757575" stroke="#757575" points="2571.19,-43.13 2561.16,-46.53 2571.12,-50.13 2571.19,-43.13"/>
</g>
<!-- src/pages/Stake/AddProposal.tsx&#45;&gt;src/components/Stake/AddCommandModal.tsx -->
<g id="edge32" class="edge">
<title>src/pages/Stake/AddProposal.tsx&#45;&gt;src/components/Stake/AddCommandModal.tsx</title>
<path fill="none" stroke="#757575" d="M2561.16,-33.47C2569.53,-33.38 2578.09,-33.31 2586.71,-33.28"/>
<polygon fill="#757575" stroke="#757575" points="2586.87,-36.78 2596.86,-33.25 2586.85,-29.78 2586.87,-36.78"/>
</g>
<!-- src/pages/Stake/AddProposal.tsx&#45;&gt;src/hooks/useContract.ts -->
<g id="edge33" class="edge">
<title>src/pages/Stake/AddProposal.tsx&#45;&gt;src/hooks/useContract.ts</title>
<path fill="none" stroke="#757575" d="M2471.46,-51.5C2520.55,-84.79 2662.95,-181.35 2721.21,-220.85"/>
<polygon fill="#757575" stroke="#757575" points="2719.25,-223.75 2729.49,-226.47 2723.18,-217.96 2719.25,-223.75"/>
</g>
<!-- src/components/swap/routing/hooks/calculateBestTrades.ts -->
<g id="node11" class="node">
<title>src/components/swap/routing/hooks/calculateBestTrades.ts</title>
<path fill="none" stroke="#ff6c60" d="M4132.33,-577.5C4132.33,-577.5 3774.67,-577.5 3774.67,-577.5 3770.83,-577.5 3767,-573.67 3767,-569.83 3767,-569.83 3767,-562.17 3767,-562.17 3767,-558.33 3770.83,-554.5 3774.67,-554.5 3774.67,-554.5 4132.33,-554.5 4132.33,-554.5 4136.17,-554.5 4140,-558.33 4140,-562.17 4140,-562.17 4140,-569.83 4140,-569.83 4140,-573.67 4136.17,-577.5 4132.33,-577.5"/>
<text text-anchor="middle" x="3953.5" y="-562.3" font-family="Arial" font-size="14.00" fill="#ff6c60">src/components/swap/routing/hooks/calculateBestTrades.ts</text>
</g>
<!-- src/components/swap/routing/hooks/useTrade.ts -->
<g id="node12" class="node">
<title>src/components/swap/routing/hooks/useTrade.ts</title>
<path fill="none" stroke="#ff6c60" d="M3723.33,-577.5C3723.33,-577.5 3430.67,-577.5 3430.67,-577.5 3426.83,-577.5 3423,-573.67 3423,-569.83 3423,-569.83 3423,-562.17 3423,-562.17 3423,-558.33 3426.83,-554.5 3430.67,-554.5 3430.67,-554.5 3723.33,-554.5 3723.33,-554.5 3727.17,-554.5 3731,-558.33 3731,-562.17 3731,-562.17 3731,-569.83 3731,-569.83 3731,-573.67 3727.17,-577.5 3723.33,-577.5"/>
<text text-anchor="middle" x="3577" y="-562.3" font-family="Arial" font-size="14.00" fill="#ff6c60">src/components/swap/routing/hooks/useTrade.ts</text>
</g>
<!-- src/components/swap/routing/hooks/calculateBestTrades.ts&#45;&gt;src/components/swap/routing/hooks/useTrade.ts -->
<g id="edge14" class="edge">
<title>src/components/swap/routing/hooks/calculateBestTrades.ts&#45;&gt;src/components/swap/routing/hooks/useTrade.ts</title>
<path fill="none" stroke="#757575" d="M3766.97,-572.75C3758.35,-572.75 3749.71,-572.74 3741.15,-572.7"/>
<polygon fill="#757575" stroke="#757575" points="3741.15,-569.2 3731.13,-572.65 3741.12,-576.2 3741.15,-569.2"/>
</g>
<!-- src/components/swap/routing/hooks/useTrade.ts&#45;&gt;src/hooks/Tokens.ts -->
<g id="edge18" class="edge">
<title>src/components/swap/routing/hooks/useTrade.ts&#45;&gt;src/hooks/Tokens.ts</title>
<path fill="none" stroke="#757575" d="M3422.98,-562.12C3229.97,-556.1 2888.09,-541.73 2597,-510 2574.21,-507.52 2549.51,-503.87 2527.17,-500.21"/>
<polygon fill="#757575" stroke="#757575" points="2527.53,-496.72 2517.09,-498.53 2526.38,-503.63 2527.53,-496.72"/>
</g>
<!-- src/components/swap/routing/hooks/useTrade.ts&#45;&gt;src/state/user/hooks.tsx -->
<g id="edge19" class="edge">
<title>src/components/swap/routing/hooks/useTrade.ts&#45;&gt;src/state/user/hooks.tsx</title>
<path fill="none" stroke="#757575" d="M3635.92,-554.43C3738.82,-535.96 3959.66,-505.79 4140,-546 4177.93,-554.46 4217.86,-575.23 4243.3,-590.18"/>
<polygon fill="#757575" stroke="#757575" points="4241.61,-593.25 4251.98,-595.4 4245.21,-587.25 4241.61,-593.25"/>
</g>
<!-- src/components/swap/routing/hooks/useTrade.ts&#45;&gt;src/components/swap/routing/hooks/calculateBestTrades.ts -->
<g id="edge16" class="edge">
<title>src/components/swap/routing/hooks/useTrade.ts&#45;&gt;src/components/swap/routing/hooks/calculateBestTrades.ts</title>
<path fill="none" stroke="#757575" d="M3731.13,-559.35C3739.63,-559.3 3748.23,-559.27 3756.85,-559.26"/>
<polygon fill="#757575" stroke="#757575" points="3756.98,-562.76 3766.97,-559.25 3756.97,-555.76 3756.98,-562.76"/>
</g>
<!-- src/components/swap/routing/hooks/directTrades.ts -->
<g id="node13" class="node">
<title>src/components/swap/routing/hooks/directTrades.ts</title>
<path fill="none" stroke="#ff6c60" d="M4108.83,-618.5C4108.83,-618.5 3798.17,-618.5 3798.17,-618.5 3794.33,-618.5 3790.5,-614.67 3790.5,-610.83 3790.5,-610.83 3790.5,-603.17 3790.5,-603.17 3790.5,-599.33 3794.33,-595.5 3798.17,-595.5 3798.17,-595.5 4108.83,-595.5 4108.83,-595.5 4112.67,-595.5 4116.5,-599.33 4116.5,-603.17 4116.5,-603.17 4116.5,-610.83 4116.5,-610.83 4116.5,-614.67 4112.67,-618.5 4108.83,-618.5"/>
<text text-anchor="middle" x="3953.5" y="-603.3" font-family="Arial" font-size="14.00" fill="#ff6c60">src/components/swap/routing/hooks/directTrades.ts</text>
</g>
<!-- src/components/swap/routing/hooks/useTrade.ts&#45;&gt;src/components/swap/routing/hooks/directTrades.ts -->
<g id="edge17" class="edge">
<title>src/components/swap/routing/hooks/useTrade.ts&#45;&gt;src/components/swap/routing/hooks/directTrades.ts</title>
<path fill="none" stroke="#757575" d="M3680.99,-577.5C3708.9,-580.61 3739.1,-583.95 3767,-587 3789.02,-589.41 3812.51,-591.96 3835.11,-594.4"/>
<polygon fill="#757575" stroke="#757575" points="3834.77,-597.88 3845.08,-595.48 3835.52,-590.93 3834.77,-597.88"/>
</g>
<!-- src/components/swap/routing/hooks/directTrades.ts&#45;&gt;src/state/user/hooks.tsx -->
<g id="edge15" class="edge">
<title>src/components/swap/routing/hooks/directTrades.ts&#45;&gt;src/state/user/hooks.tsx</title>
<path fill="none" stroke="#757575" d="M4116.87,-607C4139.22,-607 4161.44,-607 4181.74,-607"/>
<polygon fill="#757575" stroke="#757575" points="4181.86,-610.5 4191.86,-607 4181.86,-603.5 4181.86,-610.5"/>
</g>
<!-- src/state/stake/hooks.ts -->
<g id="node16" class="node">
<title>src/state/stake/hooks.ts</title>
<path fill="none" stroke="#ff6c60" d="M3084.33,-287.5C3084.33,-287.5 2941.67,-287.5 2941.67,-287.5 2937.83,-287.5 2934,-283.67 2934,-279.83 2934,-279.83 2934,-272.17 2934,-272.17 2934,-268.33 2937.83,-264.5 2941.67,-264.5 2941.67,-264.5 3084.33,-264.5 3084.33,-264.5 3088.17,-264.5 3092,-268.33 3092,-272.17 3092,-272.17 3092,-279.83 3092,-279.83 3092,-283.67 3088.17,-287.5 3084.33,-287.5"/>
<text text-anchor="middle" x="3013" y="-272.3" font-family="Arial" font-size="14.00" fill="#ff6c60">src/state/stake/hooks.ts</text>
</g>
<!-- src/hooks/useContract.ts&#45;&gt;src/state/stake/hooks.ts -->
<g id="edge24" class="edge">
<title>src/hooks/useContract.ts&#45;&gt;src/state/stake/hooks.ts</title>
<path fill="none" stroke="#757575" d="M2830.07,-243.47C2871.65,-248.67 2921.08,-256.04 2957.91,-262.63"/>
<polygon fill="#757575" stroke="#757575" points="2957.49,-266.1 2967.95,-264.46 2958.74,-259.22 2957.49,-266.1"/>
</g>
<!-- src/state/application/hooks.ts -->
<g id="node20" class="node">
<title>src/state/application/hooks.ts</title>
<path fill="none" stroke="#ff6c60" d="M4358.33,-147.5C4358.33,-147.5 4183.67,-147.5 4183.67,-147.5 4179.83,-147.5 4176,-143.67 4176,-139.83 4176,-139.83 4176,-132.17 4176,-132.17 4176,-128.33 4179.83,-124.5 4183.67,-124.5 4183.67,-124.5 4358.33,-124.5 4358.33,-124.5 4362.17,-124.5 4366,-128.33 4366,-132.17 4366,-132.17 4366,-139.83 4366,-139.83 4366,-143.67 4362.17,-147.5 4358.33,-147.5"/>
<text text-anchor="middle" x="4271" y="-132.3" font-family="Arial" font-size="14.00" fill="#ff6c60">src/state/application/hooks.ts</text>
</g>
<!-- src/state/multicall/hooks.ts&#45;&gt;src/state/application/hooks.ts -->
<g id="edge38" class="edge">
<title>src/state/multicall/hooks.ts&#45;&gt;src/state/application/hooks.ts</title>
<path fill="none" stroke="#757575" d="M3981.4,-260.4C4038.1,-235.97 4169.9,-179.15 4233.87,-151.57"/>
<polygon fill="#757575" stroke="#757575" points="4235.37,-154.74 4243.17,-147.57 4232.6,-148.31 4235.37,-154.74"/>
</g>
<!-- src/state/multicall/hooks.ts&#45;&gt;src/state/index.ts -->
<g id="edge39" class="edge">
<title>src/state/multicall/hooks.ts&#45;&gt;src/state/index.ts</title>
<path fill="none" stroke="#757575" d="M3939.72,-260.44C3907.51,-232.08 3819.25,-159.1 3731,-128 3531.92,-57.84 3469.58,-80 3258.5,-80 1897,-80 1897,-80 1897,-80 1703.53,-80 1524.04,-271.36 1470.28,-334.24"/>
<polygon fill="#757575" stroke="#757575" points="1467.31,-332.33 1463.54,-342.23 1472.66,-336.84 1467.31,-332.33"/>
</g>
<!-- src/state/stake/hooks.ts&#45;&gt;src/hooks/Tokens.ts -->
<g id="edge40" class="edge">
<title>src/state/stake/hooks.ts&#45;&gt;src/hooks/Tokens.ts</title>
<path fill="none" stroke="#757575" d="M2933.75,-287.43C2815.58,-304.77 2604.45,-336.15 2597,-340 2538.37,-370.3 2489.83,-433.97 2467.58,-466.67"/>
<polygon fill="#757575" stroke="#757575" points="2464.41,-465.13 2461.78,-475.39 2470.23,-469.01 2464.41,-465.13"/>
</g>
<!-- src/state/stake/hooks.ts&#45;&gt;src/hooks/useContract.ts -->
<g id="edge41" class="edge">
<title>src/state/stake/hooks.ts&#45;&gt;src/hooks/useContract.ts</title>
<path fill="none" stroke="#757575" d="M2933.88,-270.96C2891.72,-265.75 2840.73,-258.18 2802.9,-251.43"/>
<polygon fill="#757575" stroke="#757575" points="2803.07,-247.9 2792.6,-249.55 2801.81,-254.79 2803.07,-247.9"/>
</g>
<!-- src/state/stake/hooks.ts&#45;&gt;src/state/multicall/hooks.ts -->
<g id="edge44" class="edge">
<title>src/state/stake/hooks.ts&#45;&gt;src/state/multicall/hooks.ts</title>
<path fill="none" stroke="#757575" d="M3084.99,-287.52C3099.2,-289.39 3114.04,-291.03 3128,-292 3395.36,-310.67 3463.2,-296.79 3731,-286 3771.82,-284.35 3816.82,-281.67 3855.54,-279.09"/>
<polygon fill="#757575" stroke="#757575" points="3856.02,-282.57 3865.76,-278.4 3855.55,-275.58 3856.02,-282.57"/>
</g>
<!-- src/hooks/useCurrentBlockTimestamp.ts -->
<g id="node17" class="node">
<title>src/hooks/useCurrentBlockTimestamp.ts</title>
<path fill="none" stroke="#ff6c60" d="M3699.33,-243.5C3699.33,-243.5 3454.67,-243.5 3454.67,-243.5 3450.83,-243.5 3447,-239.67 3447,-235.83 3447,-235.83 3447,-228.17 3447,-228.17 3447,-224.33 3450.83,-220.5 3454.67,-220.5 3454.67,-220.5 3699.33,-220.5 3699.33,-220.5 3703.17,-220.5 3707,-224.33 3707,-228.17 3707,-228.17 3707,-235.83 3707,-235.83 3707,-239.67 3703.17,-243.5 3699.33,-243.5"/>
<text text-anchor="middle" x="3577" y="-228.3" font-family="Arial" font-size="14.00" fill="#ff6c60">src/hooks/useCurrentBlockTimestamp.ts</text>
</g>
<!-- src/state/stake/hooks.ts&#45;&gt;src/hooks/useCurrentBlockTimestamp.ts -->
<g id="edge42" class="edge">
<title>src/state/stake/hooks.ts&#45;&gt;src/hooks/useCurrentBlockTimestamp.ts</title>
<path fill="none" stroke="#757575" d="M3058.08,-264.46C3079.1,-259.44 3104.69,-254.03 3128,-251 3230.77,-237.66 3347.8,-233.05 3436.47,-231.71"/>
<polygon fill="#757575" stroke="#757575" points="3436.64,-235.2 3446.59,-231.56 3436.54,-228.2 3436.64,-235.2"/>
</g>
<!-- src/pages/Earn/useFarmRegistry.ts -->
<g id="node19" class="node">
<title>src/pages/Earn/useFarmRegistry.ts</title>
<path fill="none" stroke="#ff6c60" d="M2004.33,-289.5C2004.33,-289.5 1791.67,-289.5 1791.67,-289.5 1787.83,-289.5 1784,-285.67 1784,-281.83 1784,-281.83 1784,-274.17 1784,-274.17 1784,-270.33 1787.83,-266.5 1791.67,-266.5 1791.67,-266.5 2004.33,-266.5 2004.33,-266.5 2008.17,-266.5 2012,-270.33 2012,-274.17 2012,-274.17 2012,-281.83 2012,-281.83 2012,-285.67 2008.17,-289.5 2004.33,-289.5"/>
<text text-anchor="middle" x="1898" y="-274.3" font-family="Arial" font-size="14.00" fill="#ff6c60">src/pages/Earn/useFarmRegistry.ts</text>
</g>
<!-- src/state/stake/hooks.ts&#45;&gt;src/pages/Earn/useFarmRegistry.ts -->
<g id="edge43" class="edge">
<title>src/state/stake/hooks.ts&#45;&gt;src/pages/Earn/useFarmRegistry.ts</title>
<path fill="none" stroke="#757575" d="M2933.99,-276.14C2743.38,-276.48 2252.79,-277.36 2022.21,-277.78"/>
<polygon fill="#757575" stroke="#757575" points="2022.1,-274.28 2012.1,-277.8 2022.11,-281.28 2022.1,-274.28"/>
</g>
<!-- src/state/stake/useDualStakeRewards.ts -->
<g id="node23" class="node">
<title>src/state/stake/useDualStakeRewards.ts</title>
<path fill="none" stroke="#ff6c60" d="M3379.33,-363.5C3379.33,-363.5 3135.67,-363.5 3135.67,-363.5 3131.83,-363.5 3128,-359.67 3128,-355.83 3128,-355.83 3128,-348.17 3128,-348.17 3128,-344.33 3131.83,-340.5 3135.67,-340.5 3135.67,-340.5 3379.33,-340.5 3379.33,-340.5 3383.17,-340.5 3387,-344.33 3387,-348.17 3387,-348.17 3387,-355.83 3387,-355.83 3387,-359.67 3383.17,-363.5 3379.33,-363.5"/>
<text text-anchor="middle" x="3257.5" y="-348.3" font-family="Arial" font-size="14.00" fill="#ff6c60">src/state/stake/useDualStakeRewards.ts</text>
</g>
<!-- src/state/stake/hooks.ts&#45;&gt;src/state/stake/useDualStakeRewards.ts -->
<g id="edge45" class="edge">
<title>src/state/stake/hooks.ts&#45;&gt;src/state/stake/useDualStakeRewards.ts</title>
<path fill="none" stroke="#757575" d="M3080.04,-287.63C3084.14,-289.32 3088.15,-291.12 3092,-293 3109.27,-301.45 3110.24,-309.62 3128,-317 3153.22,-327.48 3183.02,-333.85 3207.57,-338.58"/>
<polygon fill="#757575" stroke="#757575" points="3206.92,-342.02 3217.4,-340.45 3208.23,-335.14 3206.92,-342.02"/>
</g>
<!-- src/state/stake/useStakingInfo.ts -->
<g id="node24" class="node">
<title>src/state/stake/useStakingInfo.ts</title>
<path fill="none" stroke="#ff6c60" d="M3355.33,-283.5C3355.33,-283.5 3159.67,-283.5 3159.67,-283.5 3155.83,-283.5 3152,-279.67 3152,-275.83 3152,-275.83 3152,-268.17 3152,-268.17 3152,-264.33 3155.83,-260.5 3159.67,-260.5 3159.67,-260.5 3355.33,-260.5 3355.33,-260.5 3359.17,-260.5 3363,-264.33 3363,-268.17 3363,-268.17 3363,-275.83 3363,-275.83 3363,-279.67 3359.17,-283.5 3355.33,-283.5"/>
<text text-anchor="middle" x="3257.5" y="-268.3" font-family="Arial" font-size="14.00" fill="#ff6c60">src/state/stake/useStakingInfo.ts</text>
</g>
<!-- src/state/stake/hooks.ts&#45;&gt;src/state/stake/useStakingInfo.ts -->
<g id="edge46" class="edge">
<title>src/state/stake/hooks.ts&#45;&gt;src/state/stake/useStakingInfo.ts</title>
<path fill="none" stroke="#757575" d="M3092.06,-268.36C3107.77,-267.8 3124.59,-267.39 3141.26,-267.16"/>
<polygon fill="#757575" stroke="#757575" points="3141.65,-270.65 3151.61,-267.04 3141.57,-263.65 3141.65,-270.65"/>
</g>
<!-- src/state/swap/hooks.ts -->
<g id="node25" class="node">
<title>src/state/swap/hooks.ts</title>
<path fill="none" stroke="#ff6c60" d="M3328.33,-521.5C3328.33,-521.5 3186.67,-521.5 3186.67,-521.5 3182.83,-521.5 3179,-517.67 3179,-513.83 3179,-513.83 3179,-506.17 3179,-506.17 3179,-502.33 3182.83,-498.5 3186.67,-498.5 3186.67,-498.5 3328.33,-498.5 3328.33,-498.5 3332.17,-498.5 3336,-502.33 3336,-506.17 3336,-506.17 3336,-513.83 3336,-513.83 3336,-517.67 3332.17,-521.5 3328.33,-521.5"/>
<text text-anchor="middle" x="3257.5" y="-506.3" font-family="Arial" font-size="14.00" fill="#ff6c60">src/state/swap/hooks.ts</text>
</g>
<!-- src/state/stake/hooks.ts&#45;&gt;src/state/swap/hooks.ts -->
<g id="edge47" class="edge">
<title>src/state/stake/hooks.ts&#45;&gt;src/state/swap/hooks.ts</title>
<path fill="none" stroke="#757575" d="M3026.03,-287.6C3065.13,-325.34 3188.96,-444.82 3237.09,-491.27"/>
<polygon fill="#757575" stroke="#757575" points="3234.78,-493.9 3244.4,-498.33 3239.64,-488.86 3234.78,-493.9"/>
</g>
<!-- src/hooks/useCurrentBlockTimestamp.ts&#45;&gt;src/hooks/useContract.ts -->
<g id="edge25" class="edge">
<title>src/hooks/useCurrentBlockTimestamp.ts&#45;&gt;src/hooks/useContract.ts</title>
<path fill="none" stroke="#757575" d="M3446.89,-229.68C3426.84,-229.4 3406.36,-229.15 3387,-229 3271.89,-228.09 3243.1,-227.64 3128,-229 3029.77,-230.16 2917.27,-233.02 2840.42,-235.21"/>
<polygon fill="#757575" stroke="#757575" points="2840.19,-231.72 2830.29,-235.5 2840.39,-238.71 2840.19,-231.72"/>
</g>
<!-- src/hooks/useCurrentBlockTimestamp.ts&#45;&gt;src/state/multicall/hooks.ts -->
<g id="edge26" class="edge">
<title>src/hooks/useCurrentBlockTimestamp.ts&#45;&gt;src/state/multicall/hooks.ts</title>
<path fill="none" stroke="#757575" d="M3685.82,-243.52C3739.4,-249.24 3803.63,-256.1 3855.63,-261.65"/>
<polygon fill="#757575" stroke="#757575" points="3855.55,-265.16 3865.86,-262.75 3856.29,-258.2 3855.55,-265.16"/>
</g>
<!-- src/pages/Earn/useCustomStakingInfo.ts -->
<g id="node18" class="node">
<title>src/pages/Earn/useCustomStakingInfo.ts</title>
<path fill="none" stroke="#ff6c60" d="M2302.33,-249.5C2302.33,-249.5 2055.67,-249.5 2055.67,-249.5 2051.83,-249.5 2048,-245.67 2048,-241.83 2048,-241.83 2048,-234.17 2048,-234.17 2048,-230.33 2051.83,-226.5 2055.67,-226.5 2055.67,-226.5 2302.33,-226.5 2302.33,-226.5 2306.17,-226.5 2310,-230.33 2310,-234.17 2310,-234.17 2310,-241.83 2310,-241.83 2310,-245.67 2306.17,-249.5 2302.33,-249.5"/>
<text text-anchor="middle" x="2179" y="-234.3" font-family="Arial" font-size="14.00" fill="#ff6c60">src/pages/Earn/useCustomStakingInfo.ts</text>
</g>
<!-- src/pages/Earn/useCustomStakingInfo.ts&#45;&gt;src/hooks/Tokens.ts -->
<g id="edge27" class="edge">
<title>src/pages/Earn/useCustomStakingInfo.ts&#45;&gt;src/hooks/Tokens.ts</title>
<path fill="none" stroke="#757575" d="M2192.78,-249.68C2236.31,-289.46 2379.1,-419.93 2432.29,-468.53"/>
<polygon fill="#757575" stroke="#757575" points="2430.01,-471.19 2439.75,-475.35 2434.73,-466.02 2430.01,-471.19"/>
</g>
<!-- src/pages/Earn/useCustomStakingInfo.ts&#45;&gt;src/hooks/useContract.ts -->
<g id="edge28" class="edge">
<title>src/pages/Earn/useCustomStakingInfo.ts&#45;&gt;src/hooks/useContract.ts</title>
<path fill="none" stroke="#757575" d="M2310.32,-238C2415.66,-238 2561.29,-238 2654.7,-238"/>
<polygon fill="#757575" stroke="#757575" points="2654.98,-241.5 2664.98,-238 2654.98,-234.5 2654.98,-241.5"/>
</g>
<!-- src/pages/Earn/useCustomStakingInfo.ts&#45;&gt;src/state/multicall/hooks.ts -->
<g id="edge30" class="edge">
<title>src/pages/Earn/useCustomStakingInfo.ts&#45;&gt;src/state/multicall/hooks.ts</title>
<path fill="none" stroke="#757575" d="M2200.46,-226.41C2231.07,-209.65 2291.06,-179.02 2346,-164 2518.83,-116.75 2567.33,-118 2746.5,-118 2746.5,-118 2746.5,-118 3258.5,-118 3513.16,-118 3808.18,-218.05 3913.04,-256.87"/>
<polygon fill="#757575" stroke="#757575" points="3911.99,-260.21 3922.59,-260.42 3914.44,-253.65 3911.99,-260.21"/>
</g>
<!-- src/pages/Earn/useCustomStakingInfo.ts&#45;&gt;src/hooks/useCurrentBlockTimestamp.ts -->
<g id="edge29" class="edge">
<title>src/pages/Earn/useCustomStakingInfo.ts&#45;&gt;src/hooks/useCurrentBlockTimestamp.ts</title>
<path fill="none" stroke="#757575" d="M2227.41,-226.43C2324.29,-203.82 2552.22,-156 2746.5,-156 2746.5,-156 2746.5,-156 3014,-156 3197.9,-156 3412.62,-196.46 3515.29,-218.34"/>
<polygon fill="#757575" stroke="#757575" points="3514.66,-221.78 3525.17,-220.46 3516.13,-214.94 3514.66,-221.78"/>
</g>
<!-- src/pages/Earn/useFarmRegistry.ts&#45;&gt;src/pages/Earn/useCustomStakingInfo.ts -->
<g id="edge31" class="edge">
<title>src/pages/Earn/useFarmRegistry.ts&#45;&gt;src/pages/Earn/useCustomStakingInfo.ts</title>
<path fill="none" stroke="#757575" d="M1979.32,-266.48C2013.17,-261.63 2052.72,-255.96 2087.58,-250.96"/>
<polygon fill="#757575" stroke="#757575" points="2088.36,-254.39 2097.76,-249.5 2087.36,-247.46 2088.36,-254.39"/>
</g>
<!-- src/state/application/hooks.ts&#45;&gt;src/state/index.ts -->
<g id="edge34" class="edge">
<title>src/state/application/hooks.ts&#45;&gt;src/state/index.ts</title>
<path fill="none" stroke="#757575" d="M4235.91,-124.4C4136.06,-91.52 3835.12,0 3578,0 1897,0 1897,0 1897,0 1733.55,0 1666.73,-3.66 1548,-116 1484.05,-176.51 1462.78,-285.95 1456.43,-332.31"/>
<polygon fill="#757575" stroke="#757575" points="1452.94,-332.07 1455.15,-342.43 1459.88,-332.95 1452.94,-332.07"/>
</g>
<!-- src/state/importfarm/reducer.ts -->
<g id="node22" class="node">
<title>src/state/importfarm/reducer.ts</title>
<path fill="none" stroke="#ff6c60" d="M1740.33,-326.5C1740.33,-326.5 1555.67,-326.5 1555.67,-326.5 1551.83,-326.5 1548,-322.67 1548,-318.83 1548,-318.83 1548,-311.17 1548,-311.17 1548,-307.33 1551.83,-303.5 1555.67,-303.5 1555.67,-303.5 1740.33,-303.5 1740.33,-303.5 1744.17,-303.5 1748,-307.33 1748,-311.17 1748,-311.17 1748,-318.83 1748,-318.83 1748,-322.67 1744.17,-326.5 1740.33,-326.5"/>
<text text-anchor="middle" x="1648" y="-311.3" font-family="Arial" font-size="14.00" fill="#ff6c60">src/state/importfarm/reducer.ts</text>
</g>
<!-- src/state/index.ts&#45;&gt;src/state/importfarm/reducer.ts -->
<g id="edge36" class="edge">
<title>src/state/index.ts&#45;&gt;src/state/importfarm/reducer.ts</title>
<path fill="none" stroke="#757575" d="M1511.12,-342.46C1532.81,-338.07 1557.7,-333.04 1580.21,-328.5"/>
<polygon fill="#757575" stroke="#757575" points="1580.91,-331.92 1590.02,-326.51 1579.53,-325.06 1580.91,-331.92"/>
</g>
<!-- src/state/importfarm/reducer.ts&#45;&gt;src/pages/Earn/useFarmRegistry.ts -->
<g id="edge35" class="edge">
<title>src/state/importfarm/reducer.ts&#45;&gt;src/pages/Earn/useFarmRegistry.ts</title>
<path fill="none" stroke="#757575" d="M1726.11,-303.5C1752.58,-299.55 1782.39,-295.1 1809.61,-291.04"/>
<polygon fill="#757575" stroke="#757575" points="1810.14,-294.5 1819.51,-289.56 1809.1,-287.57 1810.14,-294.5"/>
</g>
<!-- src/state/stake/useDualStakeRewards.ts&#45;&gt;src/hooks/Tokens.ts -->
<g id="edge48" class="edge">
<title>src/state/stake/useDualStakeRewards.ts&#45;&gt;src/hooks/Tokens.ts</title>
<path fill="none" stroke="#757575" d="M3127.81,-350.75C2992.98,-352.6 2776.26,-364.55 2597,-416 2554.27,-428.26 2508.99,-453.14 2481.23,-469.94"/>
<polygon fill="#757575" stroke="#757575" points="2479.2,-467.08 2472.51,-475.3 2482.87,-473.04 2479.2,-467.08"/>
</g>
<!-- src/state/stake/useDualStakeRewards.ts&#45;&gt;src/hooks/useContract.ts -->
<g id="edge49" class="edge">
<title>src/state/stake/useDualStakeRewards.ts&#45;&gt;src/hooks/useContract.ts</title>
<path fill="none" stroke="#757575" d="M3172.36,-340.48C3106.91,-330.78 3014.09,-315.39 2934,-296 2884.03,-283.9 2827.82,-265.66 2790.51,-252.87"/>
<polygon fill="#757575" stroke="#757575" points="2791.57,-249.53 2780.97,-249.58 2789.29,-256.15 2791.57,-249.53"/>
</g>
<!-- src/state/stake/useDualStakeRewards.ts&#45;&gt;src/state/multicall/hooks.ts -->
<g id="edge50" class="edge">
<title>src/state/stake/useDualStakeRewards.ts&#45;&gt;src/state/multicall/hooks.ts</title>
<path fill="none" stroke="#757575" d="M3387.24,-351.3C3482.61,-349.23 3615.5,-343.11 3731,-326 3791.79,-317 3860.31,-299.05 3904.83,-286.32"/>
<polygon fill="#757575" stroke="#757575" points="3905.87,-289.67 3914.51,-283.53 3903.93,-282.94 3905.87,-289.67"/>
</g>
<!-- src/state/stake/useDualStakeRewards.ts&#45;&gt;src/state/stake/hooks.ts -->
<g id="edge51" class="edge">
<title>src/state/stake/useDualStakeRewards.ts&#45;&gt;src/state/stake/hooks.ts</title>
<path fill="none" stroke="#757575" d="M3142.61,-340.47C3137.62,-338.79 3132.73,-336.97 3128,-335 3110.24,-327.62 3109.27,-319.45 3092,-311 3075.8,-303.08 3056.6,-296.64 3041.3,-291.08"/>
<polygon fill="#757575" stroke="#757575" points="3042.47,-287.78 3031.88,-287.53 3040.01,-294.33 3042.47,-287.78"/>
</g>
<!-- src/state/stake/useStakingInfo.ts&#45;&gt;src/state/multicall/hooks.ts -->
<g id="edge53" class="edge">
<title>src/state/stake/useStakingInfo.ts&#45;&gt;src/state/multicall/hooks.ts</title>
<path fill="none" stroke="#757575" d="M3363.15,-272C3496.7,-272 3725.92,-272 3855.63,-272"/>
<polygon fill="#757575" stroke="#757575" points="3855.95,-275.5 3865.95,-272 3855.95,-268.5 3855.95,-275.5"/>
</g>
<!-- src/state/stake/useStakingInfo.ts&#45;&gt;src/state/stake/hooks.ts -->
<g id="edge54" class="edge">
<title>src/state/stake/useStakingInfo.ts&#45;&gt;src/state/stake/hooks.ts</title>
<path fill="none" stroke="#757575" d="M3151.61,-280.43C3135.21,-280.81 3118.41,-281.03 3102.43,-281.07"/>
<polygon fill="#757575" stroke="#757575" points="3102.06,-277.57 3092.06,-281.07 3102.06,-284.57 3102.06,-277.57"/>
</g>
<!-- src/state/stake/useStakingInfo.ts&#45;&gt;src/hooks/useCurrentBlockTimestamp.ts -->
<g id="edge52" class="edge">
<title>src/state/stake/useStakingInfo.ts&#45;&gt;src/hooks/useCurrentBlockTimestamp.ts</title>
<path fill="none" stroke="#757575" d="M3349.91,-260.48C3388.92,-255.57 3434.59,-249.82 3474.64,-244.77"/>
<polygon fill="#757575" stroke="#757575" points="3475.2,-248.23 3484.69,-243.5 3474.33,-241.28 3475.2,-248.23"/>
</g>
<!-- src/state/swap/hooks.ts&#45;&gt;src/hooks/Tokens.ts -->
<g id="edge56" class="edge">
<title>src/state/swap/hooks.ts&#45;&gt;src/hooks/Tokens.ts</title>
<path fill="none" stroke="#757575" d="M3178.84,-507.77C3025.25,-503.37 2684.36,-493.59 2531.4,-489.21"/>
<polygon fill="#757575" stroke="#757575" points="2531.25,-485.7 2521.16,-488.91 2531.05,-492.7 2531.25,-485.7"/>
</g>
<!-- src/state/swap/hooks.ts&#45;&gt;src/state/user/hooks.tsx -->
<g id="edge58" class="edge">
<title>src/state/swap/hooks.ts&#45;&gt;src/state/user/hooks.tsx</title>
<path fill="none" stroke="#757575" d="M3336.05,-505.7C3522.43,-496.24 3991.05,-477.87 4140,-523 4183.25,-536.1 4225.78,-568.24 4249.87,-588.75"/>
<polygon fill="#757575" stroke="#757575" points="4247.75,-591.55 4257.59,-595.47 4252.34,-586.26 4247.75,-591.55"/>
</g>
<!-- src/state/swap/hooks.ts&#45;&gt;src/components/swap/routing/hooks/useTrade.ts -->
<g id="edge55" class="edge">
<title>src/state/swap/hooks.ts&#45;&gt;src/components/swap/routing/hooks/useTrade.ts</title>
<path fill="none" stroke="#757575" d="M3323.9,-521.54C3375.23,-530.59 3446.76,-543.21 3500.52,-552.69"/>
<polygon fill="#757575" stroke="#757575" points="3500.23,-556.19 3510.68,-554.48 3501.44,-549.3 3500.23,-556.19"/>
</g>
<!-- src/state/swap/hooks.ts&#45;&gt;src/state/index.ts -->
<g id="edge57" class="edge">
<title>src/state/swap/hooks.ts&#45;&gt;src/state/index.ts</title>
<path fill="none" stroke="#757575" d="M3178.7,-513.99C3151.3,-515.22 3120.29,-516.4 3092,-517 3021.79,-518.49 3004.22,-517.6 2934,-517 2316.05,-511.75 2135.45,-597.81 1548,-406 1523.13,-397.88 1497.28,-383.04 1479.01,-371.29"/>
<polygon fill="#757575" stroke="#757575" points="1480.71,-368.22 1470.43,-365.64 1476.86,-374.06 1480.71,-368.22"/>
</g>
<!-- src/state/wallet/hooks.ts -->
<g id="node26" class="node">
<title>src/state/wallet/hooks.ts</title>
<path fill="none" stroke="#ff6c60" d="M3649.33,-481.5C3649.33,-481.5 3504.67,-481.5 3504.67,-481.5 3500.83,-481.5 3497,-477.67 3497,-473.83 3497,-473.83 3497,-466.17 3497,-466.17 3497,-462.33 3500.83,-458.5 3504.67,-458.5 3504.67,-458.5 3649.33,-458.5 3649.33,-458.5 3653.17,-458.5 3657,-462.33 3657,-466.17 3657,-466.17 3657,-473.83 3657,-473.83 3657,-477.67 3653.17,-481.5 3649.33,-481.5"/>
<text text-anchor="middle" x="3577" y="-466.3" font-family="Arial" font-size="14.00" fill="#ff6c60">src/state/wallet/hooks.ts</text>
</g>
<!-- src/state/swap/hooks.ts&#45;&gt;src/state/wallet/hooks.ts -->
<g id="edge59" class="edge">
<title>src/state/swap/hooks.ts&#45;&gt;src/state/wallet/hooks.ts</title>
<path fill="none" stroke="#757575" d="M3336.17,-500.21C3381.76,-494.47 3439.55,-487.19 3486.97,-481.22"/>
<polygon fill="#757575" stroke="#757575" points="3487.44,-484.68 3496.93,-479.96 3486.57,-477.74 3487.44,-484.68"/>
</g>
<!-- src/utils/prices.ts -->
<g id="node27" class="node">
<title>src/utils/prices.ts</title>
<path fill="none" stroke="#ff6c60" d="M3627.33,-620.5C3627.33,-620.5 3526.67,-620.5 3526.67,-620.5 3522.83,-620.5 3519,-616.67 3519,-612.83 3519,-612.83 3519,-605.17 3519,-605.17 3519,-601.33 3522.83,-597.5 3526.67,-597.5 3526.67,-597.5 3627.33,-597.5 3627.33,-597.5 3631.17,-597.5 3635,-601.33 3635,-605.17 3635,-605.17 3635,-612.83 3635,-612.83 3635,-616.67 3631.17,-620.5 3627.33,-620.5"/>
<text text-anchor="middle" x="3577" y="-605.3" font-family="Arial" font-size="14.00" fill="#ff6c60">src/utils/prices.ts</text>
</g>
<!-- src/state/swap/hooks.ts&#45;&gt;src/utils/prices.ts -->
<g id="edge60" class="edge">
<title>src/state/swap/hooks.ts&#45;&gt;src/utils/prices.ts</title>
<path fill="none" stroke="#757575" d="M3278.5,-521.75C3308.72,-538.94 3368.31,-570.66 3423,-587 3450.47,-595.21 3481.67,-600.4 3508.69,-603.66"/>
<polygon fill="#757575" stroke="#757575" points="3508.49,-607.16 3518.83,-604.81 3509.29,-600.2 3508.49,-607.16"/>
</g>
<!-- src/state/wallet/hooks.ts&#45;&gt;src/hooks/Tokens.ts -->
<g id="edge63" class="edge">
<title>src/state/wallet/hooks.ts&#45;&gt;src/hooks/Tokens.ts</title>
<path fill="none" stroke="#757575" d="M3496.71,-471.2C3289.8,-474.34 2735.46,-482.74 2531.33,-485.84"/>
<polygon fill="#757575" stroke="#757575" points="2531.24,-482.34 2521.3,-485.99 2531.35,-489.34 2531.24,-482.34"/>
</g>
<!-- src/state/wallet/hooks.ts&#45;&gt;src/state/multicall/hooks.ts -->
<g id="edge64" class="edge">
<title>src/state/wallet/hooks.ts&#45;&gt;src/state/multicall/hooks.ts</title>
<path fill="none" stroke="#757575" d="M3657.2,-464.07C3681.6,-460.28 3708.06,-454.09 3731,-444 3817.18,-406.1 3899.55,-327.32 3934.69,-291.04"/>
<polygon fill="#757575" stroke="#757575" points="3937.45,-293.22 3941.84,-283.57 3932.39,-288.38 3937.45,-293.22"/>
</g>
<!-- src/utils/index.ts -->
<g id="node28" class="node">
<title>src/utils/index.ts</title>
<path fill="none" stroke="#ff6c60" d="M4002.33,-659.5C4002.33,-659.5 3904.67,-659.5 3904.67,-659.5 3900.83,-659.5 3897,-655.67 3897,-651.83 3897,-651.83 3897,-644.17 3897,-644.17 3897,-640.33 3900.83,-636.5 3904.67,-636.5 3904.67,-636.5 4002.33,-636.5 4002.33,-636.5 4006.17,-636.5 4010,-640.33 4010,-644.17 4010,-644.17 4010,-651.83 4010,-651.83 4010,-655.67 4006.17,-659.5 4002.33,-659.5"/>
<text text-anchor="middle" x="3953.5" y="-644.3" font-family="Arial" font-size="14.00" fill="#ff6c60">src/utils/index.ts</text>
</g>
<!-- src/utils/prices.ts&#45;&gt;src/utils/index.ts -->
<g id="edge66" class="edge">
<title>src/utils/prices.ts&#45;&gt;src/utils/index.ts</title>
<path fill="none" stroke="#757575" d="M3635.29,-614.97C3702.96,-622.01 3815.31,-633.71 3886.55,-641.13"/>
<polygon fill="#757575" stroke="#757575" points="3886.44,-644.64 3896.75,-642.19 3887.17,-637.68 3886.44,-644.64"/>
</g>
<!-- src/utils/index.ts&#45;&gt;src/state/lists/hooks.ts -->
<g id="edge65" class="edge">
<title>src/utils/index.ts&#45;&gt;src/state/lists/hooks.ts</title>
<path fill="none" stroke="#757575" d="M3896.84,-646.48C3800.34,-643.75 3595.75,-637.62 3423,-630 2520.77,-590.21 2295.28,-577.29 1394,-520 1358.63,-517.75 1319.63,-514.96 1286.06,-512.47"/>
<polygon fill="#757575" stroke="#757575" points="1286.06,-508.96 1275.83,-511.71 1285.54,-515.94 1286.06,-508.96"/>
</g>
</g>
</svg>
